<svg width="256" height="256" viewBox="0 0 256 256" fill="none" xmlns="http://www.w3.org/2000/svg">
<rect width="256" height="256" fill="white"/>
<g clip-path="url(#clip0_8021_1363)">
<path d="M95.3541 88.0057C100.614 88.0057 105.629 88.0057 110.644 88.0057C115.807 88.0057 118.929 90.6296 118.878 94.9019C118.827 99.0773 115.761 101.633 110.786 101.638C105.298 101.638 99.8104 101.638 94.089 101.638V122.139C98.0324 122.139 102.067 122.139 106.096 122.139C108.94 122.139 111.783 122.047 114.616 122.167C118.382 122.327 121.186 125.356 121.146 129.018C121.106 132.583 118.36 135.697 114.775 135.726C102.665 135.823 90.5501 135.76 77.9903 135.76V132.611C77.9903 120.764 77.9732 108.917 77.9903 97.0694C78.0529 68.3382 102.306 45.4536 130.919 47.1192C157.173 48.6479 177.922 70.6141 177.979 96.9611C178.007 109.75 177.979 122.544 177.979 135.6C177.096 135.663 176.286 135.766 175.477 135.771C166.006 135.783 156.541 135.788 147.069 135.771C142.408 135.766 139.353 133.033 139.37 128.932C139.393 124.854 142.459 122.167 147.155 122.15C152.05 122.133 156.951 122.15 161.983 122.15V101.65C157.959 101.65 153.931 101.65 149.902 101.65C148.101 101.65 146.306 101.667 144.505 101.65C140.089 101.61 137.074 98.8092 137.102 94.7992C137.125 90.8121 140.157 88.0514 144.613 88.0285C149.913 88 155.207 88.0228 160.53 88.0228C158.786 77.3392 146.95 63.9347 130.104 62.9821C110.41 61.8755 97.4398 76.7745 95.3655 88.0228L95.3541 88.0057Z" fill="#090C1A"/>
<path d="M78.2162 151.822H177.943C177.954 158.102 176.951 164.109 175.122 169.955C171.161 182.607 164.175 193.148 153.125 200.717C135.983 212.456 113.326 210.893 97.8595 196.89C85.18 185.425 79.2249 170.811 78.0111 154.013C77.9769 153.539 77.9997 153.066 78.0225 152.592C78.0282 152.415 78.108 152.239 78.2105 151.822H78.2162Z" fill="#090C1A"/>
</g>
<defs>
<clipPath id="clip0_8021_1363">
<rect width="100" height="161.538" fill="white" transform="translate(78 47)"/>
</clipPath>
</defs>
</svg>
